<?xml version="1.0" encoding="utf-8"?>
<!-- Uploaded to: SVG Repo, www.svgrepo.com, Generator: SVG Repo Mixer Tools -->
<svg fill="#000000" width="800px" height="800px" viewBox="0 0 32 32" version="1.1" xmlns="http://www.w3.org/2000/svg">
<title>googlecalendar</title>
<path d="M1.004 28.628c0 0 0 0 0 0.001 0 1.307 1.060 2.367 2.367 2.367 0 0 0 0 0.001 0h4.11v-6.478h-6.478zM24.518 30.371l5.853-5.853h-5.853zM28.628 1.004h-4.11v6.478h6.478v-4.11c0-0 0-0.001 0-0.001 0-1.307-1.060-2.367-2.367-2.367-0 0-0.001 0-0.001 0h0zM17.502 13.504l0.752 1.141 1.495-1.088v7.178h1.483v-9.176h-1.033zM14.887 15.918v-0.081c0.349-0.189 0.637-0.449 0.853-0.763l0.005-0.008c0.219-0.325 0.35-0.726 0.35-1.157 0-0.025-0-0.049-0.001-0.073l0 0.004c0-0.009 0-0.019 0-0.030 0-0.466-0.14-0.899-0.38-1.259l0.005 0.008c-0.26-0.384-0.612-0.688-1.024-0.886l-0.015-0.007c-0.421-0.203-0.916-0.322-1.438-0.322-0.020 0-0.040 0-0.060 0.001l0.003-0c-0.034-0.002-0.075-0.002-0.116-0.002-0.655 0-1.259 0.22-1.742 0.591l0.007-0.005c-0.444 0.344-0.786 0.8-0.984 1.326l-0.007 0.021 1.356 0.565c0.108-0.314 0.285-0.58 0.515-0.79l0.001-0.001c0.237-0.201 0.546-0.323 0.884-0.323 0.026 0 0.052 0.001 0.078 0.002l-0.004-0c0.018-0.001 0.040-0.001 0.061-0.001 0.363 0 0.697 0.125 0.962 0.334l-0.003-0.002c0.247 0.199 0.403 0.501 0.403 0.839 0 0.014-0 0.028-0.001 0.041l0-0.002c0.001 0.015 0.001 0.032 0.001 0.050 0 0.374-0.175 0.707-0.448 0.921l-0.003 0.002c-0.288 0.222-0.653 0.356-1.050 0.356-0.020 0-0.040-0-0.060-0.001l0.003 0h-0.708v1.356h0.791c0.021-0.001 0.045-0.001 0.070-0.001 0.456 0 0.875 0.154 1.209 0.413l-0.005-0.003c0.311 0.238 0.509 0.608 0.509 1.026 0 0.010-0 0.020-0 0.029l0-0.001c0 0.008 0 0.017 0 0.026 0 0.408-0.188 0.772-0.482 1.011l-0.002 0.002c-0.299 0.254-0.69 0.409-1.117 0.409-0.013 0-0.027-0-0.040-0l0.002 0c-0.014 0-0.030 0.001-0.046 0.001-0.41 0-0.786-0.147-1.078-0.391l0.003 0.002c-0.319-0.283-0.55-0.66-0.648-1.087l-0.003-0.014-1.37 0.565c0.192 0.729 0.627 1.336 1.211 1.744l0.010 0.007c0.533 0.373 1.194 0.596 1.908 0.596 0.005 0 0.010 0 0.015-0h-0.001c0.015 0 0.033 0 0.050 0 0.57 0 1.109-0.134 1.586-0.373l-0.021 0.009c0.465-0.23 0.846-0.568 1.121-0.982l0.007-0.010c0.256-0.394 0.409-0.877 0.409-1.395 0-0.014-0-0.029-0-0.043l0 0.002c0-0.017 0.001-0.037 0.001-0.057 0-0.497-0.162-0.957-0.435-1.33l0.004 0.006c-0.28-0.378-0.652-0.674-1.084-0.855l-0.017-0.006zM23.893 8.107v-7.103h-20.52c-0 0-0.001 0-0.001 0-1.307 0-2.367 1.060-2.367 2.367 0 0 0 0.001 0 0.001v-0 20.52h7.103v-15.785zM8.107 30.996h15.785v-7.103h-15.785zM23.893 8.107h7.103v15.785h-7.103z"></path>
</svg>